<svg
  xmlns="http://www.w3.org/2000/svg"
  xmlns:xlink="http://www.w3.org/1999/xlink"
  fill="none"
>

<symbol id="telegram" viewBox="0 0 24 24">

<path d="M12 24C18.6274 24 24 18.6274 24 12C24 5.37258 18.6274 0 12 0C5.37258 0 0 5.37258 0 12C0 18.6274 5.37258 24 12 24Z" fill="currentColor"/>
<path d="M15.9774 8.07947C15.9774 8.07947 17.0873 7.68987 16.9945 8.63591C16.9639 9.02547 16.6865 10.3891 16.4705 11.8638L15.7305 16.2326C15.7305 16.2326 15.6688 16.8727 15.1137 16.984C14.5588 17.0951 13.7263 16.5944 13.572 16.4831C13.4486 16.3995 11.2594 15.1473 10.4886 14.5353C10.2726 14.3681 10.0257 14.0343 10.5195 13.6448L13.7568 10.862C14.1268 10.5282 14.4968 9.74907 12.9551 10.6951L8.63804 13.3385C8.63804 13.3385 8.14461 13.617 7.21977 13.3665L5.21522 12.8098C5.21522 12.8098 4.47523 12.3925 5.73952 11.9751C8.82316 10.6673 12.616 9.33175 15.9768 8.07947H15.9774Z" fill="#FEFEFE"/>

</symbol>

<symbol id="whatsapp" viewBox="0 0 24 24">

<path d="M12 24C18.6274 24 24 18.6274 24 12C24 5.37258 18.6274 0 12 0C5.37258 0 0 5.37258 0 12C0 18.6274 5.37258 24 12 24Z" fill="currentColor"/>
<path fill-rule="evenodd" clipRule="evenodd" d="M14.3139 6.45044C15.0394 6.74979 15.698 7.1895 16.2516 7.74404C16.8079 8.29539 17.2489 8.951 17.549 9.67304C17.8491 10.3951 18.0024 11.1692 18 11.9505C17.999 15.2295 15.3181 17.897 12.0253 17.897H12.0228C11.0251 17.897 10.0433 17.6481 9.16717 17.173L6 18L6.84757 14.9185C6.32455 14.017 6.04975 12.994 6.05026 11.946C6.05123 8.66753 8.73208 6.00002 12.0249 6.00002C12.8103 5.99799 13.5883 6.15108 14.3139 6.45044ZM13.4561 12.6959C13.5912 12.7453 14.3171 13.1 14.4651 13.1736C14.4937 13.1878 14.5205 13.2007 14.5453 13.2126C14.6487 13.2622 14.7182 13.2956 14.7478 13.345C14.7846 13.4062 14.7846 13.7001 14.6619 14.0429C14.5386 14.3858 13.9485 14.6989 13.6653 14.7409C13.4109 14.7789 13.089 14.7948 12.7352 14.6826C12.5211 14.6155 12.2464 14.5251 11.8937 14.3739C10.512 13.7808 9.57794 12.4505 9.39872 12.1952C9.3858 12.1769 9.37685 12.1641 9.37186 12.1575L9.37066 12.1559C9.29229 12.0519 8.76923 11.3574 8.76923 10.6391C8.76923 9.96145 9.10426 9.60694 9.25781 9.44444C9.26806 9.43364 9.27748 9.42367 9.28592 9.41453C9.42106 9.26734 9.58103 9.23079 9.67938 9.23079C9.77774 9.23079 9.87614 9.23176 9.96258 9.23573C9.97334 9.23633 9.98451 9.23628 9.99609 9.23624C10.0819 9.23601 10.1889 9.23564 10.2944 9.48764C10.3373 9.58987 10.401 9.74397 10.4673 9.90459C10.5917 10.2057 10.7256 10.5298 10.7495 10.5778C10.7868 10.6514 10.8116 10.7369 10.7619 10.8347C10.7545 10.8495 10.7477 10.8635 10.7411 10.8769C10.7043 10.9521 10.6772 11.0072 10.6144 11.0802C10.5889 11.1096 10.5626 11.1414 10.5364 11.1731C10.4863 11.2336 10.4365 11.2939 10.3928 11.337C10.3188 11.4101 10.2423 11.4897 10.3282 11.6364C10.4142 11.7836 10.7107 12.2642 11.1494 12.6534C11.6192 13.0699 12.028 13.2467 12.2366 13.337C12.2784 13.3551 12.3122 13.3697 12.3368 13.3821C12.4844 13.4552 12.5703 13.4433 12.6568 13.345C12.7427 13.2472 13.0254 12.9162 13.1238 12.77C13.2226 12.6228 13.321 12.647 13.4561 12.6959Z" fill="#FEFEFE"/>
</symbol>

<symbol id="viber" viewBox="0 0 24 24">
<path d="M12 24C18.6274 24 24 18.6274 24 12C24 5.37258 18.6274 0 12 0C5.37258 0 0 5.37258 0 12C0 18.6274 5.37258 24 12 24Z" fill="currentColor"/>
<path d="M15.514 6.28482C13.5175 5.90506 11.4441 5.90506 9.44764 6.28482C8.56457 6.47469 7.45113 7.53803 7.25916 8.37355C6.91361 10.0065 6.91361 11.6775 7.25916 13.3105C7.48954 14.146 8.60298 15.2093 9.44764 15.3992C9.48604 15.3992 9.52445 15.4372 9.52445 15.4752V17.8677C9.52445 17.9816 9.67802 18.0576 9.75478 17.9437L10.9066 16.7664C10.9066 16.7664 11.8281 15.817 11.9817 15.665C11.9817 15.665 12.0201 15.6271 12.0585 15.6271C13.2103 15.665 14.4005 15.5511 15.5524 15.3612C16.4354 15.1714 17.5489 14.108 17.7408 13.2725C18.0864 11.6395 18.0864 9.96854 17.7408 8.33557C17.5105 7.53803 16.397 6.47469 15.514 6.28482ZM15.5524 13.4244C15.3604 13.8042 15.13 14.108 14.7461 14.2979C14.6309 14.3358 14.5157 14.3738 14.4005 14.4118C14.2469 14.3738 14.1318 14.3358 14.0166 14.2979C12.788 13.8042 11.6361 13.1206 10.7146 12.1332C10.2155 11.5636 9.79318 10.918 9.44764 10.2344C9.29407 9.89262 9.1405 9.58879 9.02528 9.24702C8.91012 8.94319 9.10209 8.63935 9.29407 8.41149C9.48604 8.18368 9.71642 8.03174 9.98516 7.91783C10.1771 7.80388 10.3691 7.87985 10.5227 8.03174C10.8299 8.41149 11.137 8.79129 11.3674 9.20903C11.5209 9.47488 11.4825 9.77866 11.2138 9.96854C11.137 10.0065 11.0986 10.0445 11.0218 10.1205C10.9834 10.1584 10.9066 10.1964 10.8682 10.2724C10.7915 10.3863 10.7915 10.5002 10.8299 10.6141C11.137 11.4876 11.7129 12.1712 12.596 12.551C12.7496 12.6269 12.8648 12.6649 13.0567 12.6649C13.3255 12.6269 13.4406 12.3231 13.6326 12.1712C13.8246 12.0193 14.055 12.0193 14.2854 12.1332C14.4773 12.2472 14.6693 12.399 14.8997 12.551C15.0916 12.7029 15.2836 12.8168 15.4756 12.9687C15.5908 13.0446 15.6292 13.2345 15.5524 13.4244ZM13.9398 10.5762C13.863 10.5762 13.9014 10.5762 13.9398 10.5762C13.7862 10.5762 13.7478 10.5002 13.7094 10.3863C13.7094 10.3104 13.7094 10.1964 13.671 10.1205C13.6326 9.96854 13.5559 9.81665 13.4023 9.70274C13.3255 9.66476 13.2487 9.62677 13.1719 9.58879C13.0567 9.5508 12.9799 9.5508 12.8648 9.5508C12.7496 9.51282 12.7112 9.43689 12.7112 9.32294C12.7112 9.24702 12.8264 9.17105 12.9031 9.17105C13.5175 9.20903 13.9782 9.5508 14.055 10.2724C14.055 10.3104 14.055 10.3863 14.055 10.4243C14.055 10.5002 14.0166 10.5762 13.9398 10.5762ZM13.5559 8.9052C13.3639 8.82928 13.1719 8.75331 12.9415 8.71532C12.8648 8.71532 12.7496 8.67734 12.6728 8.67734C12.5576 8.67734 12.4808 8.60142 12.5192 8.48746C12.5192 8.37355 12.596 8.29759 12.7112 8.33557C13.0951 8.37355 13.4406 8.44948 13.7862 8.60142C14.4773 8.94319 14.8613 9.51282 14.9764 10.2724C14.9764 10.3104 14.9764 10.3483 14.9764 10.3863C14.9764 10.4622 14.9764 10.5382 14.9764 10.6521C14.9764 10.6901 14.9764 10.7281 14.9764 10.7661C14.938 10.918 14.6693 10.956 14.6309 10.7661C14.6309 10.7281 14.5925 10.6521 14.5925 10.6141C14.5925 10.2724 14.5157 9.9306 14.3621 9.62677C14.1318 9.28496 13.863 9.05714 13.5559 8.9052ZM15.6292 11.1838C15.514 11.1838 15.4372 11.0699 15.4372 10.956C15.4372 10.7281 15.3988 10.5002 15.3604 10.2724C15.2068 9.05714 14.2085 8.06972 13.0183 7.87985C12.8264 7.84186 12.6344 7.84186 12.4808 7.80388C12.3656 7.80388 12.212 7.80388 12.1736 7.65199C12.1352 7.53803 12.2504 7.42412 12.3656 7.42412C12.404 7.42412 12.4424 7.42412 12.4424 7.42412C12.5192 7.42412 14.0166 7.46211 12.4424 7.42412C14.055 7.46211 15.3988 8.52545 15.6675 10.1205C15.7059 10.3863 15.7443 10.6521 15.7443 10.956C15.8211 11.0699 15.7443 11.1838 15.6292 11.1838Z" fill="#FEFEFE"/>
</symbol>

<symbol id="instagram" viewBox="0 0 24 24">
<path d="M12 24C18.6274 24 24 18.6274 24 12C24 5.37258 18.6274 0 12 0C5.37258 0 0 5.37258 0 12C0 18.6274 5.37258 24 12 24Z" fill="currentColor"/>
<path fill-rule="evenodd" clipRule="evenodd" d="M9.49219 18H14.5104C16.4302 18 18.0025 16.4703 18 14.6001V9.39748C18 7.52972 16.4276 6 14.5078 6H9.4896C7.56979 6 5.99742 7.52972 6 9.39748V14.6026C6 16.4703 7.57237 18 9.49219 18ZM15.7819 8.86154C15.851 8.48548 15.605 8.11085 15.2325 8.02477C14.86 7.93874 14.502 8.1738 14.4328 8.54986C14.3637 8.92592 14.6097 9.30055 14.9822 9.38658C15.3548 9.47266 15.7128 9.2376 15.7819 8.86154ZM15.2308 12C15.2308 13.784 13.784 15.2308 12 15.2308C10.216 15.2308 8.76923 13.784 8.76923 12C8.76923 10.216 10.216 8.76923 12 8.76923C13.784 8.76923 15.2308 10.216 15.2308 12ZM11.9824 9.88643C10.8149 9.88643 9.86626 10.835 9.86626 12.0025C9.86626 13.17 10.8149 14.1186 11.9824 14.1186C13.1499 14.1186 14.0985 13.17 14.0985 12.0025C14.0985 10.8325 13.1524 9.88643 11.9824 9.88643Z" fill="#FEFEFE"/>
</symbol>

<symbol id="vk" viewBox="0 0 24 24">
<g clip-path="url(#clip0_5_400)">
<path d="M12 24C18.6274 24 24 18.6274 24 12C24 5.37258 18.6274 0 12 0C5.37258 0 0 5.37258 0 12C0 18.6274 5.37258 24 12 24Z" fill="currentColor"/>
<mask id="mask0_5_400" style="mask-type:luminance" maskUnits="userSpaceOnUse" x="6" y="7" width="12" height="12">
<path d="M18 7H6V19H18V7Z" fill="white"/>
</mask>
<g mask="url(#mask0_5_400)">
<path d="M12.5359 16C8.43595 16 6.09743 13.3723 6 9H8.05371C8.12118 12.2092 9.63517 13.5686 10.8344 13.8489V9H12.7683V11.7678C13.9525 11.6487 15.1966 10.3874 15.6163 9H17.5502C17.2279 10.7097 15.8787 11.9709 14.9194 12.4895C15.8787 12.9099 17.4154 14.01 18 16H15.8712C15.414 14.6686 14.2748 13.6386 12.7683 13.4985V16H12.5359Z" fill="#FEFEFE"/>
</g>
</g>
</symbol>

<symbol id="facebook" viewBox="0 0 24 24" >
<g clip-path="url(#clip0_5_407)">
<path d="M12 24C18.6274 24 24 18.6274 24 12C24 5.37258 18.6274 0 12 0C5.37258 0 0 5.37258 0 12C0 18.6274 5.37258 24 12 24Z" fill="currentColor"/>
<mask id="mask0_5_407" style="mask-type:luminance" maskUnits="userSpaceOnUse" x="6" y="6" width="12" height="12">
<path d="M18 6H6V18H18V6Z" fill="white"/>
</mask>
<g mask="url(#mask0_5_407)">
<path d="M18 12.0331C18 8.70498 15.3128 6 11.9934 6C8.68717 6 6 8.70498 6 12.0331C6 15.0431 8.19978 17.5492 11.0582 18V13.7834H9.53017V12.0331H11.0582V10.7072C11.0582 9.1956 11.9539 8.36022 13.3238 8.36022C13.9824 8.36022 14.6674 8.49282 14.6674 8.49282V9.96466H13.9166C13.1658 9.96466 12.9287 10.4287 12.9287 10.9061V12.0331H14.5884L14.3249 13.7834H12.9287V18C15.8002 17.5492 18 15.0564 18 12.0331Z" fill="#FEFEFE"/>
</g>
</g>
</symbol>

<symbol id="youtube" viewBox="0 0 24 24">
<path d="M12 24C18.6274 24 24 18.6274 24 12C24 5.37258 18.6274 0 12 0C5.37258 0 0 5.37258 0 12C0 18.6274 5.37258 24 12 24Z" fill="currentColor"/>
<path clipRule="evenodd" fill-rule="evenodd" d="M16.6951 8.24471C17.2091 8.37652 17.6144 8.76231 17.7527 9.25181C18.0098 10.1458 17.9999 12.0094 17.9999 12.0094C17.9999 12.0094 17.9999 13.8635 17.7528 14.7576C17.6144 15.247 17.2092 15.6329 16.6951 15.7646C15.7561 16 12 16 12 16C12 16 8.25365 16 7.30481 15.7553C6.79075 15.6235 6.38552 15.2376 6.24711 14.7482C6 13.8635 6 12 6 12C6 12 6 10.1458 6.24711 9.25181C6.38543 8.7624 6.80063 8.36711 7.30472 8.23539C8.24377 8 11.9999 8 11.9999 8C11.9999 8 15.7561 8 16.6951 8.24471ZM13.8462 12L10.6154 13.6471V10.3529L13.8462 12Z" fill="#FEFEFE"/>
</symbol>

<symbol id="ok" viewBox="0 0 24 24">
<path d="M12 24C18.6274 24 24 18.6274 24 12C24 5.37258 18.6274 0 12 0C5.37258 0 0 5.37258 0 12C0 18.6274 5.37258 24 12 24Z" fill="currentColor"/>
<path fillRule="evenodd" clipRule="evenodd" d="M11.9476 7.89245C12.6219 8.12881 12.974 8.86215 12.7413 9.52884C12.5026 10.1955 11.7626 10.547 11.0883 10.3167C10.414 10.0803 10.0619 9.34699 10.2946 8.68035C10.5333 8.00761 11.2733 7.6561 11.9476 7.89245ZM13.4395 12.4925C13.6304 12.3773 13.8393 12.2682 14.0601 12.2561C14.2928 12.244 14.5912 12.3712 14.7464 12.5349C15.0746 12.8864 15.0985 13.4743 14.7344 13.8076C14.6807 13.8621 14.6091 13.9167 14.5375 13.9591C13.893 14.3349 13.523 14.5167 12.7831 14.6803C12.8785 14.7591 12.98 14.8561 13.0635 14.9349C13.5648 15.4258 14.072 15.9106 14.5673 16.4016C14.8956 16.7228 14.9075 17.1894 14.6688 17.5652C14.4122 17.9652 13.887 18.0682 13.4753 17.8379C13.3679 17.7773 13.2664 17.6924 13.153 17.5834C12.6219 17.0561 12.0849 16.5349 11.5418 16.0197C11.4702 16.0864 11.3509 16.2137 11.2613 16.3046C10.7899 16.7773 10.3304 17.2561 9.853 17.7228C9.46511 18.1167 8.88033 18.0803 8.50434 17.6804C8.22387 17.3834 8.18808 16.9046 8.43872 16.5712C8.58194 16.3955 8.74303 16.2379 8.90417 16.0803C9.26817 15.7046 9.88286 15.1228 10.217 14.7409C9.6143 14.547 8.88033 14.3167 8.37904 13.9531C7.94938 13.6379 7.88969 13.1046 8.17613 12.6803C8.28356 12.5167 8.43872 12.4015 8.68339 12.3409C8.95789 12.2743 9.22641 12.3349 9.47108 12.4682C10.1932 12.8743 10.8197 13.0803 11.7686 13.0137C12.3534 12.9409 12.9322 12.7894 13.4395 12.4925ZM12.5563 6.17728C10.9272 5.60761 9.14287 6.4561 8.56999 8.07425C7.99712 9.69245 8.85046 11.4621 10.4796 12.0258C12.1087 12.5955 13.893 11.747 14.4659 10.1288C15.0388 8.51668 14.1854 6.74701 12.5563 6.17728Z" fill="#FEFEFE"/>
</symbol>

<symbol id="dzen" viewBox="0 0 24 24">
<path d="M12 24C18.6274 24 24 18.6274 24 12C24 5.37258 18.6274 0 12 0C5.37258 0 0 5.37258 0 12C0 18.6274 5.37258 24 12 24Z" fill="currentColor"/>
<path fillRule="evenodd" clipRule="evenodd" d="M12 6C13.7442 6.02317 15.4419 6.81083 16.5582 8.15446C17.4651 9.22006 17.9767 10.61 18 12C17.7726 11.9897 17.5452 11.9817 17.3178 11.9737C16.522 11.9457 15.7261 11.9176 14.9302 11.7915C14.2093 11.6757 13.5116 11.3745 13.0233 10.8186C12.5116 10.2857 12.2791 9.56755 12.186 8.8494C12.0465 7.8996 12.0233 6.9498 12 6ZM6 12C6.04634 10.0541 7.04248 8.17758 8.61775 7.08882C9.59072 6.39383 10.7954 6.02317 12 6C11.9913 6.21808 11.985 6.43698 11.9788 6.65626C11.9517 7.60154 11.9245 8.55351 11.6988 9.47492C11.4904 10.2857 10.9575 11.027 10.193 11.4209C9.47492 11.7915 8.66409 11.861 7.85326 11.9305C7.22778 11.9768 6.62548 12 6 12ZM6 12C6.21065 12.0094 6.42226 12.0169 6.63443 12.0244C7.47217 12.0541 8.31882 12.0841 9.1506 12.2326C9.84554 12.3721 10.5174 12.6744 11.0039 13.2093C11.5598 13.8372 11.7684 14.6744 11.861 15.4884C11.9537 16.3256 11.9768 17.1628 12 18C12.0084 17.8019 12.0153 17.6038 12.0222 17.4058C12.0534 16.5115 12.0845 15.6201 12.2558 14.7442C12.3954 14 12.7907 13.3023 13.3954 12.8372C13.9535 12.4186 14.6744 12.2558 15.3488 12.1628C16.0116 12.093 16.6744 12.0625 17.3372 12.032C17.5581 12.0218 17.7791 12.0116 18 12C17.9767 13.6977 17.2093 15.3954 15.907 16.5116C14.8372 17.4651 13.4186 17.9767 12 18C10.3089 17.9767 8.61775 17.2093 7.50577 15.907C6.55597 14.8605 6.02317 13.4418 6 12Z" fill="#FEFEFE"/>
</symbol>

<symbol id="tiktok" viewBox="0 0 24 24">
<path d="M12 24C18.6274 24 24 18.6274 24 12C24 5.37258 18.6274 0 12 0C5.37258 0 0 5.37258 0 12C0 18.6274 5.37258 24 12 24Z" fill="currentColor"/>
<path fillRule="evenodd" clipRule="evenodd" d="M18 8.87418L18 10.9281C16.8771 10.9281 15.8375 10.5888 14.9885 10.0122V14.2036C14.9885 16.3003 13.2002 18 10.9943 18C10.1713 18 9.40627 17.7635 8.77076 17.3579L8.77033 17.3575C7.70261 16.676 7 15.5178 7 14.2036C7 12.107 8.78831 10.4073 10.9944 10.4073C11.1778 10.4072 11.3609 10.419 11.5425 10.4426L11.5424 12.5424C11.3676 12.4897 11.1812 12.4611 10.9879 12.4611C9.97875 12.4611 9.16083 13.2386 9.16083 14.1976C9.16083 14.8758 9.56965 15.4629 10.1658 15.7489C10.4131 15.8675 10.6922 15.9342 10.9879 15.9342C11.995 15.9342 12.8115 15.1598 12.815 14.2036V6H14.9886C14.9886 6.16957 14.9908 6.33249 15.0217 6.49998C15.1725 7.31783 15.687 8.0166 16.4011 8.44011C16.8807 8.7246 17.4348 8.87502 18 8.87418Z" fill="#FEFEFE"/>
</symbol>

<symbol id="linkedin" viewBox="0 0 24 24">
<path d="M12 24C18.6274 24 24 18.6274 24 12C24 5.37258 18.6274 0 12 0C5.37258 0 0 5.37258 0 12C0 18.6274 5.37258 24 12 24Z" fill="currentColor"/>
<path d="M15.3727 15.3727H13.7428V12.82C13.7428 12.2113 13.7319 11.4277 12.8951 11.4277C12.0462 11.4277 11.9163 12.0909 11.9163 12.7756V15.3724H10.2864V10.1231H11.8511V10.8405H11.873C12.1916 10.2957 12.7862 9.96915 13.4168 9.99257C15.0688 9.99257 15.3734 11.0792 15.3734 12.493L15.3727 15.3727ZM8.44741 9.40553C7.92848 9.40553 7.50132 8.9786 7.50132 8.45967C7.50132 7.94075 7.9283 7.51376 8.44718 7.51376C8.96601 7.51376 9.39295 7.94065 9.39304 8.45949C9.39304 8.97832 8.96615 9.40549 8.44741 9.40553ZM9.26233 15.3727H7.63075V10.1231H9.26233V15.3727ZM16.1852 6.00007H6.81166C6.37166 5.99507 6.00536 6.3529 6 6.79294V16.2061C6.00518 16.6464 6.37143 17.0047 6.81166 16.9999H16.1852C16.6266 17.0055 16.9941 16.6473 17 16.2061V6.7923C16.9941 6.35134 16.626 5.99425 16.1852 6.00007Z" fill="#FEFEFE"/>
</symbol>

<symbol id="save" viewBox="0 0 30 30">
<circle cx="15" cy="15" r="15" fill="currentColor"/>
<path d="M19.9058 12.9147C19.6136 12.9147 19.2267 12.9077 18.7449 12.9077C17.5699 12.9077 16.6038 11.8556 16.6038 10.5725V8.3213C16.6038 8.1442 16.4725 8 16.3104 8H12.8887C11.2916 8 10 9.4182 10 11.1563V18.6988C10 20.5223 11.3531 22 13.022 22H18.1177C19.7097 22 21 20.5909 21 18.8514V13.2297C21 13.0519 20.8693 12.9084 20.7066 12.9091C20.433 12.9112 20.105 12.9147 19.9058 12.9147Z" fill="#FEFEFE"/>
<path d="M17.6592 8.11467C17.4191 7.8728 17 8.03923 17 8.37444V10.4253C17 11.2855 17.7307 11.9932 18.6187 11.9932C19.1792 11.9994 19.9564 12.001 20.6165 11.9994C20.9545 11.9987 21.1263 11.6075 20.8919 11.371C20.0448 10.5179 18.528 8.98884 17.6592 8.11467Z" fill="#FEFEFE"/>
<path d="M17.8481 15.9357C17.6457 15.7222 17.32 15.7207 17.1176 15.9372L16.0164 17.1172V13.5505C16.0164 13.2468 15.7849 13 15.5 13C15.2152 13 14.9837 13.2468 14.9837 13.5505V17.1172L13.8818 15.9372C13.6801 15.7207 13.3537 15.7222 13.152 15.9357C12.9497 16.15 12.9497 16.498 13.15 16.7138L15.1341 18.8389H15.1348C15.1819 18.8892 15.2381 18.9298 15.3011 18.9579C15.3635 18.9852 15.4314 19 15.5 19C15.5693 19 15.6373 18.9852 15.6996 18.9571C15.7613 18.9298 15.8175 18.8892 15.8646 18.8397L15.866 18.8389L17.8494 16.7138C18.0504 16.498 18.0504 16.15 17.8481 15.9357Z" fill="currentColor"/>
</symbol>

<symbol id="call" viewBox="0 0 30 30">
<circle cx="15" cy="15" r="15" transform="matrix(-1 0 0 1 30 0)" fill="currentColor"/>
<path fill-rule="evenodd" clipRule="evenodd" d="M11.6486 8.22944C11.3297 7.88586 10.7991 7.93472 10.5349 8.33199L9.65439 9.65576C9.22495 10.3014 8.9978 11.0733 9.00002 11.8509C9.00181 12.4795 9.15349 13.1119 9.46935 13.6844C11.4705 17.312 13.3777 19.3252 16.7129 21.484C17.9033 22.2545 19.3798 22.1381 20.4722 21.2947L21.6919 20.353C22.0606 20.0683 22.1059 19.4966 21.787 19.1531L19.7119 16.9171C19.4748 16.6617 19.1058 16.6141 18.8171 16.8017C17.8571 17.6364 16.4081 17.559 15.5425 16.6269L14.0177 14.9847C13.1039 14.0007 13.0253 12.5038 13.831 11.4295C14.0051 11.1184 13.9609 10.7208 13.7239 10.4654L11.6486 8.22944Z" fill="#FEFEFE"/>
</symbol>

<symbol id="tenchat" viewBox="0 0 52 52">
<circle cx="26" cy="26" r="26" fill="currentColor"/>
<path fill-rule="evenodd" clip-rule="evenodd" d="M34.7287 15.1509C29.0093 13.6164 22.9912 13.6164 17.2717 15.1509C16.3298 15.4046 15.4774 15.9198 14.8116 16.6379C14.1459 17.356 13.6935 18.2481 13.506 19.2126C12.8313 22.6947 12.8313 26.2755 13.506 29.7575C13.6935 30.7221 14.1459 31.6141 14.8116 32.3322C15.4774 33.0503 16.3298 33.5655 17.2717 33.8192C20.7304 34.7484 24.3131 35.1201 27.8869 34.9206C28.3518 34.8972 28.809 35.0456 29.1654 35.3502L33.3728 38.9433C33.4118 38.9742 33.4586 38.9933 33.508 38.9985C33.5573 39.0038 33.6071 38.9949 33.6516 38.9728C33.6961 38.9508 33.7335 38.9165 33.7596 38.874C33.7857 38.8315 33.7993 38.7824 33.7989 38.7324V34.5691C33.7989 34.2723 34.0081 34.0067 34.2948 33.9442L34.7287 33.8192C35.6707 33.5655 36.5231 33.0503 37.1888 32.3322C37.8546 31.6141 38.3069 30.7221 38.4944 29.7575C39.1685 26.2816 39.1685 22.6963 38.4944 19.2126C38.3069 18.2481 37.8546 17.356 37.1888 16.6379C36.5231 15.9198 35.6707 15.4046 34.7287 15.1509ZM31.4202 18.6424C31.8076 18.6424 32.1253 18.9627 32.1253 19.361V21.8606C32.1253 22.2511 31.8153 22.5714 31.4202 22.5714H28.9407C28.5533 22.5714 28.2279 22.8916 28.2279 23.29V30.07C28.2279 30.4605 27.9179 30.7886 27.5228 30.7886H24.6869C24.4992 30.7865 24.3198 30.7099 24.1878 30.5753C24.0558 30.4408 23.9818 30.2592 23.9818 30.07V23.2978C23.9818 22.9072 23.6641 22.5792 23.2767 22.5792H20.7972C20.4098 22.5792 20.0844 22.2667 20.0844 21.8684V19.3688C20.0844 18.9783 20.402 18.6502 20.7972 18.6502H31.4124L31.4202 18.6424Z" fill="#FEFEFE"/>
</symbol>


<symbol id="twitter" viewBox="0 0 52 52">
<circle cx="26" cy="26" r="26" fill="currentColor"/>
<path d="M36.3382 21.2279C36.3541 21.4557 36.3541 21.6836 36.3541 21.9135C36.3541 28.9197 30.9882 37 21.1766 37V36.9958C18.2782 37 15.44 36.1748 13 34.6188C13.4215 34.6691 13.845 34.6943 14.2696 34.6954C16.6716 34.6975 19.0049 33.8964 20.8945 32.4212C18.6119 32.3782 16.6103 30.8988 15.9111 28.7391C16.7107 28.8924 17.5346 28.8609 18.3194 28.6478C15.8308 28.148 14.0404 25.9746 14.0404 23.4506C14.0404 23.4275 14.0404 23.4055 14.0404 23.3834C14.7819 23.7939 15.6121 24.0218 16.4614 24.047C14.1175 22.4899 13.395 19.3905 14.8104 16.9673C17.5187 20.2798 21.5146 22.2936 25.8041 22.5067C25.3742 20.6651 25.9614 18.7354 27.3473 17.4408C29.4957 15.4333 32.8747 15.5362 34.8943 17.6707C36.0889 17.4366 37.2339 17.0009 38.2817 16.3835C37.8835 17.6109 37.0501 18.6535 35.9368 19.316C36.9942 19.1921 38.0272 18.9107 39 18.4813C38.2838 19.548 37.3818 20.4772 36.3382 21.2279Z" fill="#FEFEFE"/>
</symbol>

<symbol id="skype" viewBox="0 0 52 52">
<circle cx="26" cy="26" r="26" fill="currentColor"/>
<path fill-rule="evenodd" clip-rule="evenodd" d="M38.0853 28.1638C38.2159 27.4309 38.2856 26.6805 38.2856 25.9302C38.2856 24.2725 37.9633 22.6584 37.3188 21.1403C36.7091 19.6832 35.8206 18.3658 34.6883 17.2315C33.5647 16.106 32.2495 15.2161 30.7861 14.5966C29.2793 13.9597 27.6679 13.6369 26.013 13.6369C25.2303 13.6369 24.4473 13.855 23.6787 13.855C22.6334 13.2966 21.4576 13 20.273 13C18.3306 13 16.5015 13.7591 15.134 15.1376C13.7578 16.5074 13 18.3396 13 20.2852C13 21.5242 13.3136 22.7369 13.9146 23.8188C13.9316 23.7335 13.7229 25.34 13.7229 25.9476C13.7229 27.6054 14.0452 29.2195 14.6898 30.7376C15.3082 32.2034 16.1966 33.5208 17.3202 34.6463C18.4526 35.7718 19.7591 36.6617 21.2224 37.2812C22.738 37.9268 24.3406 38.2497 26.0043 38.2497C26.7272 38.2497 27.4502 38.1799 28.1557 38.0577C29.2444 38.6772 30.4726 39 31.7356 39C33.6779 39 35.4983 38.2409 36.8745 36.8711C38.2508 35.4926 38.9998 33.6691 38.9998 31.7235C39.0085 30.4671 38.6863 29.2456 38.0853 28.1638ZM26.0565 33.4685C21.6927 33.4685 19.7417 31.3221 19.7417 29.7081C19.7417 28.8792 20.3514 28.3034 21.1875 28.3034C23.0515 28.3034 22.5725 30.9906 26.0565 30.9906C27.8421 30.9906 28.8264 30.0221 28.8264 29.0275C28.8264 28.4342 28.5302 27.7711 27.3543 27.4832L23.4783 26.5148C20.3514 25.7295 19.7852 24.0369 19.7852 22.449C19.7852 19.1423 22.886 17.9034 25.8039 17.9034C28.4867 17.9034 31.6572 19.3866 31.6572 21.3758C31.6572 22.2221 30.9255 22.7195 30.0806 22.7195C28.4867 22.7195 28.7828 20.5121 25.5688 20.5121C23.9748 20.5121 23.0951 21.2362 23.0951 22.2658C23.0951 23.2953 24.3493 23.6268 25.4468 23.8799L28.3212 24.5168C31.4655 25.2148 32.2669 27.0557 32.2669 28.7919C32.2669 31.4617 30.2113 33.4685 26.0565 33.4685Z" fill="#FEFEFE"/>
</symbol>


<symbol id="icq" viewBox="0 0 52 52">
<circle cx="26" cy="26" r="26" fill="currentColor"/>
<path fill-rule="evenodd" clip-rule="evenodd" d="M39.0001 26C39.0001 18.8203 33.1798 13 26 13C18.8203 13 13 18.8203 13 26C13 33.1798 18.8203 39.0001 26 39.0001C33.1798 39.0001 39.0001 33.1798 39.0001 26ZM26.5519 23.1811L27.7032 21.0163L27.6983 21.0166C27.9203 20.5922 28.0298 20.1098 27.993 19.6051C27.881 18.0652 26.4501 16.9018 24.7971 17.0066C23.1441 17.1113 21.8949 18.4446 22.007 19.9845C22.0449 20.5058 22.234 20.9839 22.5315 21.3842L23.9108 23.2778C24.1752 23.7371 24.7111 24.0345 25.3057 23.9968C25.8704 23.961 26.3387 23.6325 26.5519 23.1811ZM28.472 25.5986L31.2632 25.9759L31.261 25.9709C31.8107 26.0414 32.3873 25.9857 32.9391 25.7837C34.6233 25.1673 35.4392 23.4212 34.7615 21.8837C34.0837 20.3464 32.1689 19.5998 30.4847 20.2163C29.9056 20.4282 29.4292 20.7737 29.0808 21.1983L27.371 23.1958C27.3511 23.2176 27.332 23.24 27.3136 23.2628L27.306 23.2717L27.3067 23.2715C26.9932 23.6665 26.9024 24.1954 27.1168 24.6818C27.351 25.2131 27.887 25.5515 28.472 25.5986ZM27.3106 31.3492L27.0236 28.7671C26.9296 28.229 27.1183 27.6552 27.5559 27.3022C28.0065 26.939 28.5962 26.9104 29.0624 27.1778L31.1967 28.1252C31.6684 28.3229 32.0963 28.6573 32.4241 29.1199C33.3735 30.4598 33.123 32.3684 31.8647 33.3829C30.6065 34.3974 28.8169 34.1336 27.8676 32.7937C27.5568 32.3551 27.3746 31.8555 27.3142 31.3463L27.3106 31.3492ZM22.7996 28.2113L20.5583 29.3907L20.5623 29.3932C20.122 29.6291 19.7354 29.9808 19.4514 30.4369C18.5847 31.8291 19.0035 33.6673 20.3868 34.5427C21.7702 35.4181 23.5943 34.9991 24.461 33.6069C24.757 33.1314 24.9031 32.6038 24.912 32.0804L24.9872 29.6554C25.0603 29.106 24.8175 28.5382 24.3208 28.2239C23.8409 27.9203 23.2527 27.9347 22.7996 28.2113ZM22.1059 22.6944L23.6026 24.2037C23.9216 24.4971 24.0755 24.9591 23.9638 25.4165C23.847 25.8949 23.4721 26.2362 23.0311 26.3219L21.0776 26.9067L21.0776 26.9065C20.6839 27.0211 20.2567 27.0343 19.8317 26.9242C18.5341 26.5881 17.7471 25.2304 18.074 23.8915C18.4008 22.5526 19.7177 21.7397 21.0154 22.0758C21.4404 22.1859 21.8107 22.4056 22.105 22.6983L22.1059 22.6944Z" fill="#FEFEFE"/>
</symbol>


</svg>

