<svg
  xmlns="http://www.w3.org/2000/svg"
  xmlns:xlink="http://www.w3.org/1999/xlink"
  fill="none"
>

<symbol id="mobile" viewBox="0 0 24 24">
<path d="M5 3.44444C5 2.79614 5.22827 2.17438 5.6346 1.71596C6.04093 1.25754 6.59203 1 7.16667 1H15.8333C16.408 1 16.9591 1.25754 17.3654 1.71596C17.7717 2.17438 18 2.79614 18 3.44444V20.5556C18 21.2039 17.7717 21.8256 17.3654 22.284C16.9591 22.7425 16.408 23 15.8333 23H7.16667C6.59203 23 6.04093 22.7425 5.6346 22.284C5.22827 21.8256 5 21.2039 5 20.5556V3.44444ZM15.8333 3.44444H7.16667V20.5556H15.8333V3.44444Z" fill="currentColor"/>
<path d="M12 17C12 17.2652 11.8946 17.5196 11.7071 17.7071C11.5196 17.8946 11.2652 18 11 18C10.7348 18 10.4804 17.8946 10.2929 17.7071C10.1054 17.5196 10 17.2652 10 17C10 16.7348 10.1054 16.4804 10.2929 16.2929C10.4804 16.1054 10.7348 16 11 16C11.2652 16 11.5196 16.1054 11.7071 16.2929C11.8946 16.4804 12 16.7348 12 17Z" fill="currentColor"/>
</symbol>

<symbol id="phone" viewBox="0 0 24 24">
<path d="M4.11884 3.96857H8.5382L9.96243 7.52972L7.67401 9.05537C7.53925 9.14528 7.42876 9.26707 7.35236 9.40992C7.27595 9.55278 7.23599 9.71229 7.23601 9.87429C7.23897 9.96682 7.23601 9.87528 7.23601 9.87528V9.89595C7.2366 9.93996 7.23857 9.98395 7.24192 10.0278C7.24782 10.1086 7.25767 10.2178 7.27637 10.3527C7.31475 10.6184 7.38857 10.9846 7.53228 11.4157C7.82165 12.2819 8.38859 13.403 9.49293 14.5073C10.5973 15.6117 11.7184 16.1786 12.5835 16.468C13.0156 16.6117 13.3808 16.6846 13.6485 16.7239C13.7996 16.745 13.9517 16.7582 14.1042 16.7633L14.117 16.7643H14.1249C14.1249 16.7643 14.2351 16.7584 14.1259 16.7643C14.3086 16.7642 14.4877 16.7132 14.6431 16.6171C14.7985 16.521 14.9241 16.3835 15.0058 16.22L15.6653 14.901L20.0315 15.6294V19.8815C17.9537 20.1817 12.3414 20.478 7.93189 16.0684C3.52238 11.6588 3.81766 6.04542 4.11884 3.96857ZM9.2764 10.3527L11.055 9.16757C11.4307 8.91695 11.7088 8.54473 11.8427 8.11337C11.9766 7.682 11.958 7.21772 11.7902 6.7984L10.366 3.23725C10.2198 2.87198 9.96758 2.55889 9.64179 2.33836C9.316 2.11783 8.93161 1.99997 8.5382 2H4.06766C3.17296 2 2.33142 2.62108 2.18476 3.59159C1.85011 5.79836 1.39636 12.3163 6.54014 17.4602C11.6839 22.6041 18.2017 22.1493 20.4084 21.8157C21.3789 21.668 22 20.8274 22 19.9327V15.6294C22.0001 15.1634 21.8348 14.7125 21.5336 14.3569C21.2325 14.0013 20.8149 13.7641 20.3553 13.6874L15.9891 12.96C15.5738 12.8907 15.1473 12.9564 14.7721 13.1473C14.3969 13.3383 14.0928 13.6445 13.9044 14.0211L13.5639 14.7032C13.4434 14.6735 13.3242 14.6391 13.2066 14.5999C12.5963 14.3971 11.7489 13.9798 10.8847 13.1155C10.0205 12.2513 9.60317 11.4039 9.40041 10.7926C9.352 10.6481 9.31093 10.5013 9.27738 10.3527H9.2764Z" fill="currentColor"/>
</symbol>

<symbol id="email" viewBox="0 0 24 24">
<path d="M2 6C2 5.46957 2.21071 4.96086 2.58579 4.58579C2.96086 4.21071 3.46957 4 4 4H20C20.5304 4 21.0391 4.21071 21.4142 4.58579C21.7893 4.96086 22 5.46957 22 6V18C22 18.5304 21.7893 19.0391 21.4142 19.4142C21.0391 19.7893 20.5304 20 20 20H4C3.46957 20 2.96086 19.7893 2.58579 19.4142C2.21071 19.0391 2 18.5304 2 18V6ZM5.519 6L12 11.671L18.481 6H5.519ZM20 7.329L12.659 13.753C12.4766 13.9128 12.2424 14.0009 12 14.0009C11.7576 14.0009 11.5234 13.9128 11.341 13.753L4 7.329V18H20V7.329Z" fill="currentColor"/>
</symbol>

<symbol id="link" viewBox="0 0 24 24">
<path d="M16.0594 6.00671C16.0594 5.73971 16.1637 5.48365 16.3494 5.29486C16.5351 5.10606 16.7869 5 17.0495 5C17.6802 5 18.299 5.12886 18.902 5.3745C19.5584 5.64128 20.0634 6.03691 20.5218 6.50201C20.9802 6.96913 21.3693 7.48255 21.6317 8.15C21.8733 8.76309 22 9.39228 22 10.0336C22 10.6748 21.8733 11.304 21.6317 11.9171C21.3733 12.5765 20.9901 13.0849 20.5386 13.547L19.5644 14.6372C19.5537 14.6489 19.5428 14.6603 19.5317 14.6715L16.3634 17.893C15.905 18.3591 15.4 18.7547 14.7436 19.0225C14.1553 19.2664 13.5264 19.3932 12.8911 19.396C12.2557 19.3929 11.6268 19.2657 11.0386 19.0215C10.3822 18.7547 9.87723 18.3591 9.41881 17.894C8.9604 17.4268 8.57129 16.9134 8.30891 16.246C8.0593 15.6155 7.93415 14.9413 7.94059 14.2617C7.94059 13.6205 8.06733 12.9913 8.30891 12.3782C8.57129 11.7107 8.9604 11.1973 9.41782 10.7312L10.5069 9.62383C10.5989 9.53029 10.708 9.45608 10.8281 9.40544C10.9483 9.35479 11.077 9.3287 11.2071 9.32866C11.3371 9.32861 11.4659 9.35461 11.5861 9.40517C11.7062 9.45573 11.8154 9.52985 11.9074 9.62332C11.9994 9.71679 12.0724 9.82776 12.1222 9.94991C12.172 10.0721 12.1977 10.203 12.1977 10.3352C12.1978 10.4674 12.1722 10.5984 12.1225 10.7206C12.0728 10.8428 11.9998 10.9538 11.9079 11.0473L10.8188 12.1547C10.4851 12.494 10.2802 12.7859 10.1475 13.1252C10.0008 13.4857 9.9238 13.8716 9.92079 14.2617C9.92079 14.7409 9.99703 15.1175 10.1475 15.499C10.2802 15.8383 10.4851 16.1302 10.8188 16.4695C11.1525 16.8087 11.4396 17.0171 11.7733 17.152C12.1604 17.3101 12.5317 17.3826 12.8911 17.3826C13.2505 17.3826 13.6218 17.3101 14.0089 17.152C14.3426 17.0171 14.6297 16.8087 14.9634 16.4695L18.1148 13.2651L19.0891 12.1748C19.0997 12.1632 19.1106 12.1517 19.1218 12.1406C19.4554 11.8013 19.6604 11.5094 19.7931 11.1701C19.9485 10.7765 20.0198 10.399 20.0198 10.0336C20.0198 9.66812 19.9485 9.2906 19.7931 8.89698C19.6604 8.55772 19.4554 8.26577 19.1218 7.92651C18.7881 7.58725 18.501 7.37886 18.1673 7.24295C17.8127 7.09409 17.4332 7.01616 17.0495 7.01342C16.7869 7.01342 16.5351 6.90736 16.3494 6.71856C16.1637 6.52977 16.0594 6.27371 16.0594 6.00671ZM11.2079 7.51678C10.8485 7.51678 10.4772 7.58926 10.0901 7.74631C9.75643 7.88222 9.46931 8.0906 9.13564 8.43087L5.88515 11.7349L4.91089 12.8252L4.87822 12.8594C4.54455 13.1987 4.3396 13.4906 4.20594 13.8299C4.05954 14.1904 3.98289 14.5764 3.9802 14.9664C3.9802 15.3319 4.05149 15.7094 4.20594 16.103C4.3396 16.4423 4.54455 16.7342 4.87921 17.0735C5.21188 17.4128 5.49901 17.6211 5.83267 17.757C6.2198 17.9141 6.59109 17.9866 6.95049 17.9866C7.21309 17.9866 7.46492 18.0926 7.6506 18.2814C7.83628 18.4702 7.94059 18.7263 7.94059 18.9933C7.94059 19.2603 7.83628 19.5163 7.6506 19.7051C7.46492 19.8939 7.21309 20 6.95049 20C6.31518 19.9972 5.6863 19.8705 5.09802 19.6265C4.44158 19.3587 3.93663 18.9631 3.47822 18.497C3.0198 18.0309 2.63069 17.5175 2.36832 16.85C2.12808 16.2519 2.00304 15.6125 2 14.9664C2 14.3252 2.12673 13.696 2.36832 13.0829C2.62673 12.4235 3.0099 11.9151 3.46139 11.453L4.43564 10.3628L4.46832 10.3285L7.73564 7.00638C8.19406 6.54027 8.69901 6.14463 9.35544 5.87785C9.94366 5.63359 10.5725 5.50645 11.2079 5.50336C11.8386 5.50336 12.4574 5.63222 13.0604 5.87785C13.7168 6.14463 14.2218 6.54027 14.6802 7.00537C15.1386 7.47248 15.5277 7.98591 15.7901 8.65336C16.0317 9.26644 16.1584 9.89564 16.1584 10.5369C16.1584 11.1782 16.0317 11.8074 15.7901 12.4205C15.5307 13.0799 15.1475 13.5903 14.696 14.0513L13.6208 15.2443C13.4433 15.4411 13.1962 15.5581 12.9338 15.5696C12.6714 15.5811 12.4153 15.4862 12.2218 15.3057C12.0283 15.1252 11.9132 14.874 11.9018 14.6072C11.8905 14.3404 11.9839 14.08 12.1614 13.8832L13.2505 12.6752L13.2802 12.644C13.6139 12.3047 13.8188 12.0128 13.9515 11.6735C14.1069 11.2799 14.1782 10.9023 14.1782 10.5369C14.1782 10.1715 14.1069 9.79396 13.9515 9.40034C13.8188 9.06107 13.6139 8.76913 13.2802 8.42987C12.9465 8.0906 12.6594 7.88222 12.3257 7.74631C11.9711 7.59745 11.5916 7.51951 11.2079 7.51678Z" fill="currentColor"/>
</symbol>

<symbol id="address" viewBox="0 0 24 24">
<path d="M12 2C7.6 2 4 5.6 4 10C4 15.4 11 21.5 11.3 21.8C11.5 21.9 11.8 22 12 22C12.2 22 12.5 21.9 12.7 21.8C13 21.5 20 15.4 20 10C20 5.6 16.4 2 12 2ZM12 19.7C9.9 17.7 6 13.4 6 10C6 6.7 8.7 4 12 4C15.3 4 18 6.7 18 10C18 13.3 14.1 17.7 12 19.7ZM12 6C9.8 6 8 7.8 8 10C8 12.2 9.8 14 12 14C14.2 14 16 12.2 16 10C16 7.8 14.2 6 12 6ZM12 12C10.9 12 10 11.1 10 10C10 8.9 10.9 8 12 8C13.1 8 14 8.9 14 10C14 11.1 13.1 12 12 12Z" fill="currentColor"/>
</symbol>

<symbol id="date" viewBox="0 0 24 24">
<path d="M9 2C9.26522 2 9.51957 2.10536 9.70711 2.29289C9.89464 2.48043 10 2.73478 10 3V4H14V3C14 2.73478 14.1054 2.48043 14.2929 2.29289C14.4804 2.10536 14.7348 2 15 2C15.2652 2 15.5196 2.10536 15.7071 2.29289C15.8946 2.48043 16 2.73478 16 3V4H19C19.5304 4 20.0391 4.21071 20.4142 4.58579C20.7893 4.96086 21 5.46957 21 6V19C21 19.5304 20.7893 20.0391 20.4142 20.4142C20.0391 20.7893 19.5304 21 19 21H5C4.46957 21 3.96086 20.7893 3.58579 20.4142C3.21071 20.0391 3 19.5304 3 19V6C3 5.46957 3.21071 4.96086 3.58579 4.58579C3.96086 4.21071 4.46957 4 5 4H8V3C8 2.73478 8.10536 2.48043 8.29289 2.29289C8.48043 2.10536 8.73478 2 9 2ZM8 6H5V9H19V6H16V7C16 7.26522 15.8946 7.51957 15.7071 7.70711C15.5196 7.89464 15.2652 8 15 8C14.7348 8 14.4804 7.89464 14.2929 7.70711C14.1054 7.51957 14 7.26522 14 7V6H10V7C10 7.26522 9.89464 7.51957 9.70711 7.70711C9.51957 7.89464 9.26522 8 9 8C8.73478 8 8.48043 7.89464 8.29289 7.70711C8.10536 7.51957 8 7.26522 8 7V6ZM19 11H5V19H19V11Z" fill="currentColor"/>
</symbol>

<symbol id="user" viewBox="0 0 24 24">
<path d="M12 4C10.9391 4 9.92172 4.42143 9.17157 5.17157C8.42143 5.92172 8 6.93913 8 8C8 9.06087 8.42143 10.0783 9.17157 10.8284C9.92172 11.5786 10.9391 12 12 12C13.0609 12 14.0783 11.5786 14.8284 10.8284C15.5786 10.0783 16 9.06087 16 8C16 6.93913 15.5786 5.92172 14.8284 5.17157C14.0783 4.42143 13.0609 4 12 4ZM6 8C6 6.4087 6.63214 4.88258 7.75736 3.75736C8.88258 2.63214 10.4087 2 12 2C13.5913 2 15.1174 2.63214 16.2426 3.75736C17.3679 4.88258 18 6.4087 18 8C18 9.5913 17.3679 11.1174 16.2426 12.2426C15.1174 13.3679 13.5913 14 12 14C10.4087 14 8.88258 13.3679 7.75736 12.2426C6.63214 11.1174 6 9.5913 6 8ZM8 18C7.20435 18 6.44129 18.3161 5.87868 18.8787C5.31607 19.4413 5 20.2044 5 21C5 21.2652 4.89464 21.5196 4.70711 21.7071C4.51957 21.8946 4.26522 22 4 22C3.73478 22 3.48043 21.8946 3.29289 21.7071C3.10536 21.5196 3 21.2652 3 21C3 19.6739 3.52678 18.4021 4.46447 17.4645C5.40215 16.5268 6.67392 16 8 16H16C17.3261 16 18.5979 16.5268 19.5355 17.4645C20.4732 18.4021 21 19.6739 21 21C21 21.2652 20.8946 21.5196 20.7071 21.7071C20.5196 21.8946 20.2652 22 20 22C19.7348 22 19.4804 21.8946 19.2929 21.7071C19.1054 21.5196 19 21.2652 19 21C19 20.2044 18.6839 19.4413 18.1213 18.8787C17.5587 18.3161 16.7956 18 16 18H8Z" fill="currentColor"/>
</symbol>

<symbol id="fax" viewBox="0 0 24 24">
<path d="M7 2C6.73478 2 6.48043 2.10536 6.29289 2.29289C6.10536 2.48043 6 2.73478 6 3V7H4C3.46957 7 2.96086 7.21071 2.58579 7.58579C2.21071 7.96086 2 8.46957 2 9V17C2 17.5304 2.21071 18.0391 2.58579 18.4142C2.96086 18.7893 3.46957 19 4 19H6V21C6 21.2652 6.10536 21.5196 6.29289 21.7071C6.48043 21.8946 6.73478 22 7 22H17C17.2652 22 17.5196 21.8946 17.7071 21.7071C17.8946 21.5196 18 21.2652 18 21V19H20C20.5304 19 21.0391 18.7893 21.4142 18.4142C21.7893 18.0391 22 17.5304 22 17V9C22 8.46957 21.7893 7.96086 21.4142 7.58579C21.0391 7.21071 20.5304 7 20 7H18V3C18 2.73478 17.8946 2.48043 17.7071 2.29289C17.5196 2.10536 17.2652 2 17 2H7ZM17 14H7C6.73478 14 6.48043 14.1054 6.29289 14.2929C6.10536 14.4804 6 14.7348 6 15V17H4V9H20V17H18V15C18 14.7348 17.8946 14.4804 17.7071 14.2929C17.5196 14.1054 17.2652 14 17 14ZM16 7H8V4H16V7ZM5 10V12H8V10H5ZM16 16V20H8V16H16Z" fill="currentColor"/>
</symbol>

<symbol id="arrow" viewBox="0 0 16 12" fill="none" >
<path d="M0 6L15 6" stroke="currentColor"/>
<path d="M10 1L15 6L10 11" stroke="currentColor"/>
</symbol>

<symbol id="save" viewBox="0 0 30 30" fill="none">
<circle cx="15" cy="15" r="15" fill="currentColor"/>
<path d="M19.9058 12.9147C19.6136 12.9147 19.2267 12.9077 18.7449 12.9077C17.5699 12.9077 16.6038 11.8556 16.6038 10.5725V8.3213C16.6038 8.1442 16.4725 8 16.3104 8H12.8887C11.2916 8 10 9.4182 10 11.1563V18.6988C10 20.5223 11.3531 22 13.022 22H18.1177C19.7097 22 21 20.5909 21 18.8514V13.2297C21 13.0519 20.8693 12.9084 20.7066 12.9091C20.433 12.9112 20.105 12.9147 19.9058 12.9147Z" fill="#FEFEFE"/>
<path d="M17.6592 8.11467C17.4191 7.8728 17 8.03923 17 8.37444V10.4253C17 11.2855 17.7307 11.9932 18.6187 11.9932C19.1792 11.9994 19.9564 12.001 20.6165 11.9994C20.9545 11.9987 21.1263 11.6075 20.8919 11.371C20.0448 10.5179 18.528 8.98884 17.6592 8.11467Z" fill="#FEFEFE"/>
<path d="M17.8481 15.9357C17.6457 15.7222 17.32 15.7207 17.1176 15.9372L16.0164 17.1172V13.5505C16.0164 13.2468 15.7849 13 15.5 13C15.2152 13 14.9837 13.2468 14.9837 13.5505V17.1172L13.8818 15.9372C13.6801 15.7207 13.3537 15.7222 13.152 15.9357C12.9497 16.15 12.9497 16.498 13.15 16.7138L15.1341 18.8389H15.1348C15.1819 18.8892 15.2381 18.9298 15.3011 18.9579C15.3635 18.9852 15.4314 19 15.5 19C15.5693 19 15.6373 18.9852 15.6996 18.9571C15.7613 18.9298 15.8175 18.8892 15.8646 18.8397L15.866 18.8389L17.8494 16.7138C18.0504 16.498 18.0504 16.15 17.8481 15.9357Z" fill="#060606"/>
</symbol>

<symbol id="call" viewBox="0 0 30 30" fill="none" >
<circle cx="15" cy="15" r="15" transform="matrix(-1 0 0 1 30 0)" fill="currentColor"/>
<path fill-rule="evenodd" clipRule="evenodd" d="M11.6486 8.22944C11.3297 7.88586 10.7991 7.93472 10.5349 8.33199L9.65439 9.65576C9.22495 10.3014 8.9978 11.0733 9.00002 11.8509C9.00181 12.4795 9.15349 13.1119 9.46935 13.6844C11.4705 17.312 13.3777 19.3252 16.7129 21.484C17.9033 22.2545 19.3798 22.1381 20.4722 21.2947L21.6919 20.353C22.0606 20.0683 22.1059 19.4966 21.787 19.1531L19.7119 16.9171C19.4748 16.6617 19.1058 16.6141 18.8171 16.8017C17.8571 17.6364 16.4081 17.559 15.5425 16.6269L14.0177 14.9847C13.1039 14.0007 13.0253 12.5038 13.831 11.4295C14.0051 11.1184 13.9609 10.7208 13.7239 10.4654L11.6486 8.22944Z" fill="#FEFEFE"/>
</symbolight=>




</svg>